PathFileType	4	(X/Y/Z)	C:\My Captures\DataSMARTClinic\0004~001 ID\0004~aa~STRATO_01\W2_STRATO_ID_01.trc
DataRate	CameraRate	NumFrames	NumMarkers	Units	OrigDataRate	OrigDataStartFrame	OrigNumFrames
250.00	250.00	6	18	mm	250.00	1	1811
Frame#	Time	r.should			l.should			c7			r.asis			l.asis			sacrum			r.bar1			l.bar1			r.knee1			l.knee1			r.bar2			r.mall			l.bar2			l.mall			r.met			r.heel			l.heel			l.met			
		X1	Y1	Z1	X2	Y2	Z2	X3	Y3	Z3	X4	Y4	Z4	X5	Y5	Z5	X6	Y6	Z6	X7	Y7	Z7	X8	Y8	Z8	X9	Y9	Z9	X10	Y10	Z10	X11	Y11	Z11	X12	Y12	Z12	X13	Y13	Z13	X14	Y14	Z14	X15	Y15	Z15	X16	Y16	Z16	X17	Y17	Z17	X18	Y18	Z18	

874	3.496000	-908.091247	1277.275085	386.100352	-966.794789	1292.242408	98.488666	-1013.238788	1340.846539	249.782905	-874.880791	858.261108	375.312626	-874.596775	863.011062	119.556770	-1078.523636	896.978259	247.837842	-951.750815	780.103207	441.465706	-924.724460	756.045759	65.400027	-926.513135	426.830262	390.801311	-870.161891	430.059969	115.909897	-942.089260	365.589440	392.419308	-960.388601	72.322920	343.334377	-902.145982	385.194182	108.126581	-1110.114932	184.623271	135.098130	-838.451564	39.278481	332.427055	-1016.421556	37.930056	293.842614	-1177.461147	204.763845	176.443651	-1058.045030	66.826791	163.661405	
875	3.500000	-903.748393	1277.753830	386.317849	-963.260412	1292.520642	98.845795	-1009.240985	1341.130018	250.244647	-868.733048	857.787728	374.229431	-870.362043	863.733172	120.211981	-1074.485898	897.283196	248.042941	-947.952569	780.329704	441.647559	-920.350194	756.701529	65.601155	-925.288856	426.628828	390.524477	-862.733901	431.083232	116.494037	-941.135466	365.597844	392.282337	-960.266232	72.329037	343.201399	-894.427478	385.916531	108.821973	-1099.505186	182.360232	136.807859	-838.389397	39.258994	332.386732	-1016.341448	38.019903	293.696910	-1167.350531	201.236367	178.203285	-1044.543028	66.033863	165.358871	
876	3.504000	-899.413168	1278.215289	386.538416	-959.732294	1292.757273	99.190041	-1005.255461	1341.390371	250.719011	-863.279700	857.586026	373.676807	-866.146147	864.426136	120.859355	-1070.458770	897.555053	248.258829	-944.008291	780.442894	441.744089	-915.988564	757.285655	65.739937	-924.075007	426.598698	390.375346	-855.422676	432.125390	117.046513	-940.217674	365.621597	392.168820	-960.130811	72.352648	343.065977	-886.746109	386.613488	109.478027	-1088.718653	179.947183	138.530269	-838.335752	39.246131	332.346201	-1016.265273	38.116973	293.552071	-1157.081842	197.534814	180.001810	-1030.900478	65.202981	167.003050	
877	3.508000	-895.087659	1278.669357	386.751264	-956.205726	1292.957783	99.505790	-1001.268506	1341.638088	251.188397	-858.398497	857.552946	373.490214	-861.933589	865.067601	121.507190	-1066.419601	897.793412	248.448238	-940.044880	780.515552	441.903234	-911.640823	757.837057	65.881804	-922.840834	426.625371	390.257716	-848.116934	433.152825	117.565207	-939.339340	365.660459	392.054170	-959.971964	72.369359	342.931062	-879.066288	387.288719	110.122748	-1077.840447	177.410170	140.219361	-838.269234	39.225407	332.306147	-1016.187906	38.229980	293.410808	-1146.537900	193.491995	181.834489	-1017.111778	64.304665	168.519646	
878	3.512000	-890.772581	1279.099226	386.955500	-952.698350	1293.145895	99.819392	-997.279108	1341.860771	251.651525	-854.025722	857.669890	373.592108	-857.713342	865.637541	122.160494	-1062.395215	898.020029	248.630270	-936.066270	780.553401	442.036927	-907.533526	758.076727	66.449754	-921.623707	426.661491	390.195847	-840.982497	434.214860	118.096374	-938.514054	365.731239	391.937971	-959.823608	72.384357	342.797339	-871.349573	387.901932	110.795788	-1066.828132	174.744695	141.882658	-838.212073	39.217804	332.280040	-1016.108274	38.348962	293.264270	-1135.896444	189.338267	183.655053	-1003.243327	63.379407	169.999346	
879	3.516000	-886.468589	1279.498816	387.123853	-949.208617	1293.296814	100.127459	-993.282259	1342.041016	252.099216	-850.011349	857.867301	373.917967	-853.499651	866.137981	122.778744	-1058.396339	898.227453	248.819217	-932.150364	780.610681	442.301005	-903.794527	758.242488	67.158200	-920.393825	426.701844	390.115798	-833.941936	435.299575	118.565634	-937.718451	365.807891	391.830146	-959.693491	72.403640	342.676789	-863.661289	388.483673	111.442074	-1055.717587	172.001898	143.500134	-838.146567	39.202366	332.267016	-1016.041636	38.479757	293.115258	-1125.204921	185.220808	185.477197	-989.204526	62.408261	171.097860	
